# xmcd CD database file
#
# Track frame offsets:
#	150
#	23400
#	48555
#	79760
#	96387
#	118242
#	135837
#	163230
#	179307
#	196987
#	212107
#	229762
#	263872
#	279612
#	309372
#
# Disc length: 4359 seconds
#
# Revision: 0
# Processed by: cddbd v1.5.1PL0 Copyright (c) Steve Scherf et al.
# Submitted via: CDex 1.51
#
DISCID=cf11050f
DTITLE=Billy Joel - BEST SELECTION
DYEAR=1900
DGENRE=Rock
TTITLE0=The Stranger
TTITLE1=Piano Man
TTITLE2=Captain Jack
TTITLE3=The Entertainer
TTITLE4=Just the Way You are
TTITLE5=Say Goodbye to Hollywood
TTITLE6=NewYork State of Mind
TTITLE7=Vienna
TTITLE8=Only the Good Die Young
TTITLE9=She's Always A Woman
TTITLE10=Get it Right the First Time
TTITLE11=Scenes From an Italian Restaurant
TTITLE12=Movin' out (Anthony's Song)
TTITLE13=Everybody Has a Dream
TTITLE14=James
EXTD=
EXTT0=
EXTT1=
EXTT2=
EXTT3=
EXTT4=
EXTT5=
EXTT6=
EXTT7=
EXTT8=
EXTT9=
EXTT10=
EXTT11=
EXTT12=
EXTT13=
EXTT14=
PLAYORDER=
